<svg xmlns="http://www.w3.org/2000/svg" width="39" height="39" viewBox="0 0 39 39">
  <g id="Filtter" transform="translate(-15 -48)">
    <circle id="Ellipse_402" data-name="Ellipse 402" cx="19.5" cy="19.5" r="19.5" transform="translate(15 48)" fill="#f2f2f7"/>
    <path id="sort" d="M16.907,2H8.1C4.28,2,2,4.28,2,8.1V16.9c0,3.834,2.28,6.114,6.1,6.114H16.9c3.824,0,6.1-2.28,6.1-6.1V8.1C23.01,4.28,20.731,2,16.907,2Zm-3,15.758H11.1a.788.788,0,1,1,0-1.576h2.8a.788.788,0,1,1,0,1.576Zm2.8-4.465H8.3a.788.788,0,0,1,0-1.576h8.4a.788.788,0,0,1,0,1.576Zm2.1-4.465H6.2a.788.788,0,0,1,0-1.576H18.808a.788.788,0,1,1,0,1.576Z" transform="translate(22 54.995)" fill="#007aff"/>
  </g>
</svg>
