<svg xmlns="http://www.w3.org/2000/svg" width="39" height="39" viewBox="0 0 39 39">
  <g id="edit" transform="translate(-81 -48)">
    <circle id="Ellipse_403" data-name="Ellipse 403" cx="19.5" cy="19.5" r="19.5" transform="translate(81 48)" fill="#f2f2f7"/>
    <path id="edit-2" data-name="edit" d="M16.907,2H8.1C4.28,2,2,4.28,2,8.1V16.9c0,3.834,2.28,6.114,6.1,6.114H16.9c3.824,0,6.1-2.28,6.1-6.1V8.1C23.01,4.28,20.731,2,16.907,2ZM11.4,18.294a2.708,2.708,0,0,1-1.3.662l-2.584.368a2.576,2.576,0,0,1-.284.021,1.555,1.555,0,0,1-1.114-.431,1.6,1.6,0,0,1-.41-1.408l.368-2.584a2.577,2.577,0,0,1,.662-1.3l4.685-4.685c.084.221.168.441.284.693.105.221.221.452.347.662a5.257,5.257,0,0,0,.315.473,3.917,3.917,0,0,0,.336.441,1.432,1.432,0,0,0,.116.147,6.868,6.868,0,0,0,.83.83.964.964,0,0,0,.137.126c.158.126.315.252.452.347a3.927,3.927,0,0,0,.515.336c.21.126.441.242.672.357s.462.2.683.273Zm6.744-6.744-.966.977a.326.326,0,0,1-.231.095.261.261,0,0,1-.095-.011,6.515,6.515,0,0,1-4.444-4.444.312.312,0,0,1,.084-.315l.977-.977c1.6-1.6,3.12-1.565,4.685,0a3.371,3.371,0,0,1,1.187,2.364A3.407,3.407,0,0,1,18.147,11.549Z" transform="translate(88 54.995)" fill="#007aff"/>
  </g>
</svg>
