<svg xmlns="http://www.w3.org/2000/svg" width="21" height="21" viewBox="0 0 21 21">
  <g id="gallery-add" transform="translate(-2 -1)">
    <path id="Path_7599" data-name="Path 7599" d="M20.97,1H18.03a1.831,1.831,0,0,0-1.8,1A2.09,2.09,0,0,0,16,3.03V5.97A1.866,1.866,0,0,0,18.03,8h2.94A2.09,2.09,0,0,0,22,7.77a1.831,1.831,0,0,0,1-1.8V3.03A1.866,1.866,0,0,0,20.97,1Zm.94,3.93a.647.647,0,0,1-.41.18H20.09v.51l.01.88a.632.632,0,0,1-.19.43.59.59,0,0,1-.41.17.6.6,0,0,1-.6-.6V5.1l-1.4.01a.61.61,0,0,1-.6-.61.6.6,0,0,1,.6-.6l.88.01h.52V2.51a.6.6,0,1,1,1.2,0l-.01.71V3.9H21.5a.6.6,0,0,1,.6.6A.681.681,0,0,1,21.91,4.93Z" transform="translate(0)" fill="#007aff"/>
    <path id="Path_7600" data-name="Path 7600" d="M9,10.381A2.38,2.38,0,1,0,6.621,8,2.38,2.38,0,0,0,9,10.381Z" transform="translate(0 0)" fill="#007aff"/>
    <path id="Path_7601" data-name="Path 7601" d="M20.97,8H20.5v4.61l-.13-.11a2.23,2.23,0,0,0-2.82,0l-4.16,3.57a2.23,2.23,0,0,1-2.82,0l-.34-.28a2.221,2.221,0,0,0-2.64-.14L3.85,18.16a5.333,5.333,0,0,1-.35-1.97V7.81C3.5,4.99,4.99,3.5,7.81,3.5H16V3.03A2.09,2.09,0,0,1,16.23,2H7.81C4.17,2,2,4.17,2,7.81v8.38a6.723,6.723,0,0,0,.56,2.84C3.42,20.93,5.26,22,7.81,22h8.38C19.83,22,22,19.83,22,16.19V7.77A2.09,2.09,0,0,1,20.97,8Z" transform="translate(0 0)" fill="#007aff"/>
  </g>
</svg>
