<svg xmlns="http://www.w3.org/2000/svg" xmlns:xlink="http://www.w3.org/1999/xlink" width="39" height="39" viewBox="0 0 39 39">
  <defs>
    <linearGradient id="linear-gradient" x1="0.619" y1="0.775" x2="0.181" y2="0.13" gradientUnits="objectBoundingBox">
      <stop offset="0" stop-color="#ff8919"/>
      <stop offset="1" stop-color="#ffd93b"/>
    </linearGradient>
  </defs>
  <g id="premuim" transform="translate(-147 -48)">
    <g id="Group_59321" data-name="Group 59321" transform="translate(66)">
      <circle id="Ellipse_403" data-name="Ellipse 403" cx="19.5" cy="19.5" r="19.5" transform="translate(81 48)" fill="url(#linear-gradient)"/>
    </g>
    <g id="crown" transform="translate(153.744 54.631)">
      <path id="Path_7595" data-name="Path 7595" d="M17.822,22.115H7.057a.807.807,0,0,1,0-1.615H17.822a.807.807,0,0,1,0,1.615Z" transform="translate(0.32 1.397)" fill="#fff"/>
      <path id="Path_7596" data-name="Path 7596" d="M21.748,5.771,17.442,8.849a1.084,1.084,0,0,1-1.636-.5L13.771,2.929a1.072,1.072,0,0,0-2.013,0L9.713,8.344a1.061,1.061,0,0,1-1.625.5L3.782,5.76A1.085,1.085,0,0,0,2.135,7.009L6.613,19.549a1.068,1.068,0,0,0,1.012.71H17.883a1.083,1.083,0,0,0,1.012-.71L23.373,7.009A1.067,1.067,0,0,0,21.748,5.771Zm-6.3,9.936H10.068a.807.807,0,1,1,0-1.615h5.382a.807.807,0,1,1,0,1.615Z" transform="translate(0 0)" fill="#fff"/>
    </g>
  </g>
</svg>
